# xmcd CD database file
#
# Track frame offsets:
#	150
#	21008
#	43008
#
# Disc length: 906 seconds
#
# Revision: 0
# Processed by: cddbd v1.5.1PL0 Copyright (c) Steve Scherf et al.
# Submitted via: CDex 1.51
#
DISCID=1b038803
DTITLE=Muthas Pride - Grorious Day
DYEAR=1900
DGENRE=Heavy Metal
TTITLE0=Grorious Day
TTITLE1=Running Faraway
TTITLE2=Dreamer
EXTD=
EXTT0=
EXTT1=
EXTT2=
PLAYORDER=
